<?xml version="1.0" standalone="no"?><!DOCTYPE svg PUBLIC "-//W3C//DTD SVG 1.1//EN" "http://www.w3.org/Graphics/SVG/1.1/DTD/svg11.dtd"><svg t="1534474953761" class="icon" style="" viewBox="0 0 1024 1024" version="1.1" xmlns="http://www.w3.org/2000/svg" p-id="958" xmlns:xlink="http://www.w3.org/1999/xlink" width="128" height="128"><defs><style type="text/css"></style></defs><path d="M146.6 891.4c66.2 85.8 179.6 112.5 251.8 110.2 130.3-4.3 213.8-46.2 267.5-110.2H146.6z m0 0M162.3 324.9c31.5-45.9 131.8-78.7 236.1-78.7 104.3 0 202.3 35.2 234.7 78.7H162.3z m0 0" fill="#74A2CA" p-id="959"></path><path d="M697.3 387.8H99.4s33.5-36.8 62.9-62.9c22.1-19.7 47.2-31.5 47.2-31.5h377.7s34.8 18.3 63 47.2c20.2 20.8 47.1 47.2 47.1 47.2z m0 0M728.8 828.4H73.3s30 35.4 41.8 47.2c11.8 11.8 62.9 47.2 62.9 47.2h455.1s34.8-35.4 48.5-47.2c13.8-11.7 47.2-47.2 47.2-47.2z m0 0" fill="#F0BB5D" p-id="960"></path><path d="M776 697.9l-753.2 3.6s-2.1-28.8-2.1-93.3c0-57 15.8-78.7 15.8-78.7h723.9s16.3 37 15.7 94.4c-0.3 38.2-0.1 74-0.1 74z m0 0" fill="#EEAC38" p-id="961"></path><path d="M760.3 529.4H36.4s0.2-42.7 31.5-94.4c21-34.6 47.2-62.9 47.2-62.9h566.5s27.4 18.3 47.3 62.9c33.7 75.6 31.4 94.4 31.4 94.4z m0 0M20.7 686.8H776s3 32.8-15.7 78.7c-19.2 47.2-47.3 78.7-47.3 78.7H83.6s-39.3-59-47.2-78.7c-7.8-19.7-15.7-78.7-15.7-78.7z m0 0" fill="#206BAB" p-id="962"></path><path d="M996.3 151.8c0 60.8-49.3 110.2-110.2 110.2-60.8 0-110.2-49.3-110.2-110.2S825.3 41.6 886.2 41.6c60.8 0 110.1 49.3 110.1 110.2z m0 0" fill="#74A2CA" p-id="963"></path><path d="M886.2 261.9c-2.2 2.4 107.4-21.3 110.1-110.2C998.2 91 947 41.6 886.2 41.6c0 0 90.4 123.3 0 220.3z m0 0" fill="#206BAB" p-id="964"></path><path d="M854.7 120.3h31.5v31.5h-31.5zM823.2 167.5h31.5V199h-31.5z" fill="#1C1C1A" p-id="965"></path><path d="M886.2 25.9c-69.4 0-125.9 56.5-125.9 125.9s56.5 125.9 125.9 125.9 125.9-56.5 125.9-125.9S955.6 25.9 886.2 25.9z m-7.1 220c-48.8-3.6-87.4-44.4-87.4-94.1 0-11 1.9-21.6 5.4-31.5H839V88.8h-23.1c15.9-17.7 38.4-29.4 63.6-31.2 14.1 16.4 54.7 71.8 27.7 141.4h-36.7v31.5h20.1c-3.5 5-7.2 10.2-11.5 15.4z m43.4-7c32.3-53.8 28.2-102.6 17.4-136.3-4.7-14.5-10.8-27.2-17-37.8 33.9 14.3 57.7 47.9 57.7 87 0 39.2-24 72.8-58.1 87.1z m0 0" fill="#1C1C1A" p-id="966"></path><path d="M555.7 513.7h94.4v31.5h-94.4zM193.8 671.1h94.4v31.5h-94.4z" fill="#FFFFFF" p-id="967"></path><path d="M130.8 671.1h31.5v31.5h-31.5z" fill="#1C1C1A" p-id="968"></path><path d="M398.3 828.4h141.6v31.5H398.3zM225.2 435h110.2v31.5H225.2zM319.7 356.3h62.9v31.5h-62.9z" fill="#FFFFFF" p-id="969"></path><path d="M713.1 859.7c49.4-65.7 78.7-147.4 78.7-235.8 0-216.9-176.5-393.4-393.4-393.4S4.9 406.9 4.9 623.9c0 128.4 61.9 242.7 157.4 314.5v0.2h0.3c65.8 49.4 147.4 78.7 235.8 78.7 128.4 0 242.7-61.9 314.5-157.4h0.2v-0.2zM398.3 985.8c-64.9 0-125.8-17.2-178.6-47.2h147.1v-31.5H173.3C135.5 877 103.9 839.6 80.6 797h286.3v-31.5H65.3C46.7 722 36.4 674.1 36.4 623.9c0-27 3-53.3 8.6-78.7h479.2v-31.5H53.5c15-46.8 39.2-89.5 70.6-125.9h132.5v-31.5H154.8c64.3-58.6 149.8-94.4 243.5-94.4 36.7 0 72.2 5.5 105.6 15.7h-74.2v31.5h147.1c23.4 13.3 45.2 29.2 65 47.2H477v31.5h195.5c54.7 63.4 87.8 145.9 87.8 236.1 0 16-1.1 31.8-3.1 47.2H319.7v31.5h432c-10.2 45.8-29.1 88.4-54.9 125.9H587.2V860h85.3c-66.4 77-164.7 125.8-274.2 125.8z m0 0" fill="#1C1C1A" p-id="970"></path><path d="M681.6 513.7h31.5v31.5h-31.5z" fill="#1C1C1A" p-id="971"></path></svg>